<?xml version="1.0" encoding="utf-8"?>
<!-- Generator: Adobe Illustrator 22.0.1, SVG Export Plug-In . SVG Version: 6.00 Build 0)  -->
<svg version="1.1" id="Layer_1" xmlns="http://www.w3.org/2000/svg" xmlns:xlink="http://www.w3.org/1999/xlink" x="0px" y="0px"
	 viewBox="0 0 100 100" style="enable-background:new 0 0 100 100;" xml:space="preserve">
<style type="text/css">
	.st0{fill:#FFFFFF;}
</style>
<g>
	<path class="st0" d="M0.8,0v100h65.5L51.6,34.9l19.2-5.6l-4-9.6l-17.4,5.2L45.8,8.6c3-0.7,6.5-1,10.6-1c3.4,0.3,6.9,0.9,10.5,1.9
		c3.5,1.3,6.7,3,9.4,5c2.8,2.2,5.4,5.2,7.8,8.8c1.2,2.5,2.1,4.8,2.8,7.2c0.7,2.4,1,5.3,1,8.4c0,2.6-0.4,5.5-1.3,9
		c-0.8,3.2-2.2,6.4-4,9.4l16.7,8.7V0H0.8z M26.5,78.3c-4.7-2-8.5-4.8-11.6-8.6c-3-3.4-4.8-7.3-5.8-11.6C8,54.2,7.8,50,8.4,45.6
		C9,41.9,10.3,38,12.3,34c1.4-3.2,3.5-6.3,6.2-9.4c4.7-5.6,10.7-9.9,17.7-13.1l1.7,17l-16.3,5.2l-0.7,10.6L39,38.7l4.4,42.5
		C37.2,81.5,31.6,80.6,26.5,78.3z"/>
</g>
</svg>
