<?xml version="1.0" encoding="utf-8"?>
<!-- Generator: Adobe Illustrator 22.1.0, SVG Export Plug-In . SVG Version: 6.00 Build 0)  -->
<svg version="1.1" id="Layer_1" xmlns="http://www.w3.org/2000/svg" xmlns:xlink="http://www.w3.org/1999/xlink" x="0px" y="0px"
	 width="24px" height="28px" viewBox="0 0 24 28" style="enable-background:new 0 0 24 28;" xml:space="preserve">
<circle fill="#fff" cx="12" cy="9.6" r="3.9"/>
<path fill="#c31345" d="M12,0.7c-4.9,0-8.8,4-8.8,8.8c0,4.7,8,16.9,8.4,17.5c0.1,0.2,0.3,0.2,0.4,0.2s0.3-0.1,0.4-0.2
	c0.4-0.6,8.4-12.8,8.4-17.5C20.8,4.7,16.9,0.7,12,0.7z M12,13.4c-2.2,0-3.9-1.7-3.9-3.9S9.8,5.7,12,5.7s3.9,1.7,3.9,3.9
	S14.2,13.4,12,13.4z"/>
</svg>
